<?xml version="1.0" encoding="utf-8"?>
<!-- Generator: Adobe Illustrator 21.0.0, SVG Export Plug-In . SVG Version: 6.00 Build 0)  -->
<svg version="1.1" id="Capa_1" xmlns="http://www.w3.org/2000/svg" xmlns:xlink="http://www.w3.org/1999/xlink" x="0px" y="0px"
	 viewBox="0 0 49.7 49.7" style="enable-background:new 0 0 49.7 49.7;" xml:space="preserve">
<style type="text/css">
	.st0{fill:#333333;}
</style>
<g>
	<g>
		<path class="st0" d="M24.8,0C11.1,0,0,11.1,0,24.8c0,13.7,11.1,24.8,24.8,24.8c13.7,0,24.8-11.1,24.8-24.8
			C49.7,11.1,38.5,0,24.8,0z M38.5,23L38.5,23l-7.2,5.2l2.8,8.5c0,0.1,0.1,0.3,0.1,0.4c0,0.7-0.6,1.3-1.3,1.3
			c-0.3,0-0.6-0.1-0.8-0.3l-7.2-5.2l-7.2,5.2c-0.2,0.2-0.5,0.3-0.8,0.3c-0.7,0-1.3-0.6-1.3-1.3c0-0.1,0-0.3,0.1-0.4l2.8-8.5L11.1,23
			v0c-0.3-0.2-0.6-0.6-0.6-1.1c0-0.7,0.6-1.3,1.3-1.3h8.9l2.8-8.4c0.2-0.5,0.7-0.9,1.3-0.9s1.1,0.4,1.3,0.9l2.8,8.4h8.9
			c0.7,0,1.3,0.6,1.3,1.3C39.1,22.4,38.9,22.8,38.5,23z"/>
	</g>
</g>
</svg>
