<?xml version="1.0" encoding="utf-8"?>
<!-- Generator: Adobe Illustrator 21.0.0, SVG Export Plug-In . SVG Version: 6.00 Build 0)  -->
<svg version="1.1" id="Ebene_1" xmlns="http://www.w3.org/2000/svg" xmlns:xlink="http://www.w3.org/1999/xlink" x="0px" y="0px"
	 viewBox="0 0 100 20" style="enable-background:new 0 0 100 20;" xml:space="preserve">
<style type="text/css">
	.st0{fill:#6699CC;}
	.st1{opacity:0.2;fill:#336699;}
</style>
<g id="Ebene_2">
	<rect class="st0" width="100" height="20"/>
</g>
<path id="Combined-Shape" class="st1" d="M21.2,20c0.4-0.1,0.7-0.3,1.1-0.4s1.6-0.6,1.8-0.7c9.6-3.6,15.6-4.9,26-4.9
	c10.3,0,15.4,1.2,24.6,4.9c1,0.4,1.9,0.7,2.8,1.1h6.2c-2.5-0.7-5.1-1.7-8.2-2.9C65.9,13.3,60.6,12,50,12s-16.9,1.4-26.7,5.1
	c-0.2,0.1-1.4,0.5-1.8,0.7c-2.5,0.9-4.7,1.7-6.7,2.3h6.4V20z M21.2,0C13.3,2.9,8.1,4,0,4l0,0V2c5.7,0,10-0.6,14.8-2H21.2L21.2,0z
	 M77.4,0c7.9,3,13.1,4,22.6,4V2c-6.8,0-11.4-0.5-16.4-2H77.4L77.4,0z M0,14c8.4,0,13.7-1.2,22.3-4.4C22.6,9.5,23.9,9,24,8.9
	C33.6,5.3,39.6,4,50,4c10.3,0,15.4,1.2,24.6,4.9C84.1,12.7,89.4,14,100,14v-2c-10.3,0-15.4-1.2-24.6-4.9C65.9,3.3,60.6,2,50,2
	S33.1,3.4,23.3,7.1c-0.2,0.1-1.4,0.5-1.8,0.7C13.2,10.8,8.2,12,0,12V14L0,14L0,14z"/>
</svg>
